<?xml version="1.0" encoding="utf-8"?>
<!-- Generator: Adobe Illustrator 24.3.0, SVG Export Plug-In . SVG Version: 6.00 Build 0)  -->
<svg version="1.1" id="Layer_1" xmlns="http://www.w3.org/2000/svg" xmlns:xlink="http://www.w3.org/1999/xlink" x="0px" y="0px"
	 viewBox="0 0 841.9 595.3" style="enable-background:new 0 0 841.9 595.3;" xml:space="preserve">
<style type="text/css">
	.st0{opacity:0.3;fill:#EF4351;enable-background:new    ;}
	.st1{fill:#EF4351;}
	.st2{fill:#FFFFFF;}
</style>
<ellipse id="Ellipse_16" class="st0" cx="392.1" cy="322.9" rx="182.9" ry="182.9"/>
<ellipse id="Ellipse_17" class="st0" cx="392.1" cy="322.9" rx="137.2" ry="137.1"/>
<g id="Component_44_17" transform="translate(50 44)">
	<path id="Path_51" class="st1" d="M342.1,176.5c50.5,0,91.5,40.9,91.5,91.4s-40.9,91.4-91.5,91.4s-91.5-40.9-91.5-91.4
		S291.6,176.5,342.1,176.5z"/>
	<path id="Icon_awesome-trash" class="st2" d="M384.6,221.8h-24.5l-1.9-3.9c-0.8-1.7-2.5-2.8-4.4-2.8h-23.3c-1.9,0-3.6,1.1-4.4,2.8
		l-1.9,3.9h-24.5c-1.8,0-3.3,1.5-3.3,3.3c0,0,0,0,0,0v6.7c0,1.8,1.4,3.3,3.2,3.3c0,0,0,0,0,0h84.9c1.8,0,3.3-1.5,3.3-3.3
		c0,0,0,0,0,0v-6.7C387.8,223.4,386.4,221.9,384.6,221.8C384.6,221.8,384.6,221.8,384.6,221.8z M307.2,312.5
		c0.3,5.2,4.6,9.3,9.8,9.4h50.2c5.2-0.1,9.5-4.2,9.8-9.4l4.3-70.6h-78.4L307.2,312.5z"/>
</g>
</svg>
