<?xml version="1.0" encoding="utf-8"?>
<!-- Generator: Adobe Illustrator 24.3.0, SVG Export Plug-In . SVG Version: 6.00 Build 0)  -->
<svg version="1.1" id="Layer_1" xmlns="http://www.w3.org/2000/svg" xmlns:xlink="http://www.w3.org/1999/xlink" x="0px" y="0px"
	 viewBox="0 0 841.9 595.3" style="enable-background:new 0 0 841.9 595.3;" xml:space="preserve">
<style type="text/css">
	.st0{opacity:0.3;fill:#EF4351;enable-background:new    ;}
	.st1{fill:#EF4351;}
	.st2{fill:#FFFFFF;}
</style>
<ellipse id="Ellipse_16" class="st0" cx="437.6" cy="341.4" rx="182.4" ry="181.4"/>
<ellipse id="Ellipse_17" class="st0" cx="437.6" cy="341.4" rx="136.8" ry="136"/>
<g id="Component_44_17" transform="translate(50 44)">
	<path id="Path_51" class="st1" d="M387.6,195.8c50.4,0,91.2,40.6,91.2,90.7s-40.8,90.7-91.2,90.7s-91.2-40.6-91.2-90.7
		S337.2,195.8,387.6,195.8z"/>
	<path id="Icon_material-error-outline" class="st2" d="M383,300.1h9.1v9.1H383V300.1z M383,263.8h9.1V291H383V263.8z M387.6,241.1
		c-25.2,0-45.6,20.4-45.6,45.4c0,15.7,8.2,30.2,21.5,38.5c7.2,4.5,15.5,6.8,24,6.8c25.2,0,45.6-20.3,45.6-45.3
		S412.7,241.1,387.6,241.1z M387.6,322.8c-20.1,0-36.5-16.2-36.5-36.3c0-20,16.3-36.3,36.5-36.3c20.1,0,36.5,16.2,36.5,36.3
		C424.1,306.5,407.8,322.8,387.6,322.8C387.6,322.8,387.6,322.8,387.6,322.8z"/>
</g>
</svg>
