<?xml version="1.0" encoding="utf-8"?>
<!-- Generator: Adobe Illustrator 24.3.0, SVG Export Plug-In . SVG Version: 6.00 Build 0)  -->
<svg version="1.1" id="Layer_1" xmlns="http://www.w3.org/2000/svg" xmlns:xlink="http://www.w3.org/1999/xlink" x="0px" y="0px"
	 viewBox="0 0 595.3 841.9" style="enable-background:new 0 0 595.3 841.9;" xml:space="preserve">
<style type="text/css">
	.st0{fill:#FFFFFF;}
</style>
<path id="Icon_material-error-outline" class="st0" d="M274.3,477.9h50.2v50.4h-50.2V477.9z M274.3,276.1h50.2v151.3h-50.2V276.1z
	 M299.2,150C160.6,150.2,48.4,263.2,48.5,402.6c0.1,87.1,44.9,168,118.4,214c39.6,25,85.5,38.1,132.2,37.9
	c138.5,0,250.8-112.9,250.8-252.2S437.7,150,299.2,150z M299.4,604c-110.8,0-200.7-90.3-200.7-201.8s89.8-201.8,200.7-201.8
	s200.7,90.3,200.7,201.8c0,111.4-89.8,201.8-200.6,201.8C299.5,604,299.4,604,299.4,604z"/>
</svg>
