<?xml version="1.0" encoding="utf-8"?>
<!-- Generator: Adobe Illustrator 24.3.0, SVG Export Plug-In . SVG Version: 6.00 Build 0)  -->
<svg version="1.1" id="Layer_1" xmlns="http://www.w3.org/2000/svg" xmlns:xlink="http://www.w3.org/1999/xlink" x="0px" y="0px"
	 viewBox="0 0 841.9 595.3" style="enable-background:new 0 0 841.9 595.3;" xml:space="preserve">
<style type="text/css">
	.st0{opacity:0.3;fill:#53BB70;enable-background:new    ;}
	.st1{fill:#53BB70;}
	.st2{fill:#FFFFFF;}
</style>
<ellipse id="Ellipse_16" class="st0" cx="420.6" cy="307.4" rx="182.4" ry="182.4"/>
<ellipse id="Ellipse_17" class="st0" cx="420.6" cy="307.4" rx="136.8" ry="136.8"/>
<g id="Component_44_17" transform="translate(50 44)">
	<path id="Path_51" class="st1" d="M370.6,161.2c50.4,0,91.2,40.8,91.2,91.2s-40.8,91.2-91.2,91.2s-91.2-40.8-91.2-91.2
		S320.2,161.2,370.6,161.2z"/>
	<path id="Icon_material-message" class="st2" d="M407.1,206.8h-73c-5,0-9.1,4.1-9.1,9.1l0,82.1l18.2-18.2h63.8c5,0,9.1-4.1,9.1-9.1
		V216C416.2,210.9,412.1,206.8,407.1,206.8z M398,261.5h-54.7v-9.1H398V261.5z M398,247.9h-54.7v-9.1H398V247.9z M398,234.2h-54.7
		v-9.1H398V234.2z"/>
</g>
</svg>
