<?xml version="1.0" encoding="utf-8"?>
<!-- Generator: Adobe Illustrator 24.3.0, SVG Export Plug-In . SVG Version: 6.00 Build 0)  -->
<svg version="1.1" id="Layer_1" xmlns="http://www.w3.org/2000/svg" xmlns:xlink="http://www.w3.org/1999/xlink" x="0px" y="0px"
	 viewBox="0 0 595.3 841.9" style="enable-background:new 0 0 595.3 841.9;" xml:space="preserve">
<style type="text/css">
	.st0{fill:#000000;}
</style>
<path id="Icon_awesome-trash" class="st0" d="M449.7,266.5h-84.8l-6.6-14.3c-2.8-6.2-8.7-10.1-15.2-10.2h-80.8
	c-6.5,0-12.4,4-15.1,10.2l-6.6,14.3h-84.8c-6.3,0.1-11.4,5.5-11.3,12.2c0,0,0,0,0,0.1v24.5c-0.1,6.7,5,12.2,11.2,12.2c0,0,0,0,0.1,0
	h293.9c6.3-0.1,11.4-5.5,11.3-12.2c0,0,0,0,0-0.1v-24.5C461.1,272,456,266.6,449.7,266.5C449.7,266.5,449.7,266.5,449.7,266.5z
	 M182.1,599.2c0.9,19.2,15.8,34.2,33.8,34.4h173.6c18.1-0.2,32.9-15.3,33.8-34.4l15-259.3H167.1L182.1,599.2z"/>
</svg>
