<?xml version="1.0" encoding="utf-8"?>
<!-- Generator: Adobe Illustrator 24.3.0, SVG Export Plug-In . SVG Version: 6.00 Build 0)  -->
<svg version="1.1" id="Layer_1" xmlns="http://www.w3.org/2000/svg" xmlns:xlink="http://www.w3.org/1999/xlink" x="0px" y="0px"
	 viewBox="0 0 841.9 841.9" style="enable-background:new 0 0 841.9 841.9;" xml:space="preserve">
<style type="text/css">
	.st0{fill:#FFFFFF;}
</style>
<g>
	<path class="st0" d="M584.1,795.3c-50,0-104.3-14.4-161.4-42.8C369.3,726,315,687.4,265.5,641C164,545.8,91.6,426.7,71.7,322.5
		C60.5,263.3,66.1,211,88.3,167.1c24-47.3,67.1-83.9,128.2-109.1c48.4,34.8,83.5,90.8,104.8,132.3c21.2,41.5,33,76.8,35.4,84.5
		c-1.8,19.4-41.2,50.2-69.4,66.3c-4.5,2.6-6.3,8.2-4.1,12.9C331.2,456.4,393.8,513.4,438,543.2c48.3,32.6,85.1,40.7,86.6,41
		c0.7,0.1,1.4,0.2,2.1,0.2c4.1,0,7.9-2.6,9.4-6.6c10.8-29.8,45.3-52.1,55.8-58.3c86.9,18.7,137,53.8,163.9,80.1
		c23.2,22.7,33.5,42.9,36.9,50.7c-23.4,49.1-53.8,86.3-90.3,110.5C668.2,783.7,628.4,795.3,584.1,795.3z"/>
	<path class="st0" d="M215.1,69.4c18.2,13.9,35.9,31.9,52.6,53.7c15.8,20.6,30.8,44.6,44.4,71.3c19.3,37.7,30.7,70.3,34.2,81
		c-1.6,5.5-8.9,16.7-29,32.9c-17.2,13.8-34.9,23.9-35,24c-9,5.2-12.6,16.4-8.2,25.9c48.9,104.4,113,162.7,158.2,193.2
		c49.9,33.7,88.5,42.2,90.1,42.5c1.4,0.3,2.8,0.4,4.2,0.4c8.3,0,15.9-5.1,18.8-13.2c8.1-22.4,33.6-42,48.1-51.1
		c35.2,7.9,66.8,19,94.2,33.3c23.2,12.1,43.4,26.4,60.1,42.5c19.2,18.6,29.3,35.5,33.8,44.4c-22.3,45.3-50.8,79.7-84.7,102.3
		c-32.6,21.7-70.5,32.6-112.8,32.6c-24.3,0-50.2-3.6-76.9-10.8c-26-7-52.9-17.4-80-30.9c-52.5-26.1-106-64.1-154.8-109.8
		C172.3,539.9,101,422.9,81.6,320.7c-10.8-57-5.6-107.2,15.7-149.1C119.4,127.9,159,93.5,215.1,69.4 M217.8,46.7
		c-405.6,160.1,40.8,758.6,366.2,758.6c88.8,0,168.5-44.5,219.5-154.5c0,0-34.3-104.6-213.4-141.8c0,0-49.3,26.2-63.5,65.4
		c0,0-143.5-30.5-234.4-224.6c0,0,74.5-42.5,74.5-76.3C366.8,273.5,319.3,116,217.8,46.7L217.8,46.7z"/>
</g>
</svg>
