<?xml version="1.0" encoding="utf-8"?>
<!-- Generator: Adobe Illustrator 24.3.0, SVG Export Plug-In . SVG Version: 6.00 Build 0)  -->
<svg version="1.1" id="Layer_1" xmlns="http://www.w3.org/2000/svg" xmlns:xlink="http://www.w3.org/1999/xlink" x="0px" y="0px"
	 viewBox="0 0 1366 768" style="enable-background:new 0 0 1366 768;" xml:space="preserve">
<style type="text/css">
	.st0{fill:#F3F3F3;}
	.st1{fill:none;stroke:#B8B8B8;stroke-width:0.9892;}
</style>
<g id="Rectangle_100" transform="translate(783 115)">
	<rect x="-14.9" class="st0" width="94.9" height="43"/>
	<rect x="-14.4" y="0.5" class="st1" width="93.9" height="42"/>
</g>
<g id="Rectangle_101" transform="translate(825 158)">
	<rect x="-15.8" y="4" class="st0" width="94.9" height="43"/>
	<rect x="-15.3" y="4.5" class="st1" width="93.9" height="42"/>
</g>
<g id="Rectangle_93" transform="translate(0 43)">
	<rect y="4" class="st0" width="94.9" height="43"/>
	<rect x="0.5" y="4.5" class="st1" width="93.9" height="42"/>
</g>
<g id="Rectangle_91" transform="translate(49)">
	<rect x="0.9" class="st0" width="94.9" height="43"/>
	<rect x="1.4" y="0.5" class="st1" width="93.9" height="42"/>
</g>
<g id="Rectangle_92" transform="translate(146)">
	<rect x="4.8" class="st0" width="94.9" height="43"/>
	<rect x="5.3" y="0.5" class="st1" width="93.9" height="42"/>
</g>
<g id="Rectangle_94" transform="translate(97 43)">
	<rect x="3.9" y="4" class="st0" width="94.9" height="43"/>
	<rect x="4.4" y="4.5" class="st1" width="93.9" height="42"/>
</g>
<g id="Rectangle_65" transform="translate(260 335)">
	<rect x="-3.6" y="4" class="st0" width="94.9" height="43"/>
	<rect x="-3.1" y="4.5" class="st1" width="93.9" height="42"/>
</g>
<g id="Rectangle_76" transform="translate(502 378)">
	<rect x="-10.8" y="-4" class="st0" width="94.9" height="43"/>
	<rect x="-10.3" y="-3.5" class="st1" width="93.9" height="42"/>
</g>
<g id="Rectangle_81" transform="translate(503 464)">
	<rect x="-10.8" y="4" class="st0" width="94.9" height="43"/>
	<rect x="-10.3" y="4.5" class="st1" width="93.9" height="42"/>
</g>
<g id="Rectangle_86" transform="translate(1103 249)">
	<rect x="-21.7" y="-4" class="st0" width="94.9" height="43"/>
	<rect x="-21.2" y="-3.5" class="st1" width="93.9" height="42"/>
</g>
<g id="Rectangle_72" transform="translate(97 722)">
	<rect x="-0.1" class="st0" width="94.9" height="43"/>
	<rect x="0.4" y="0.5" class="st1" width="93.9" height="42"/>
</g>
<g id="Rectangle_77" transform="translate(1101 636)">
	<rect x="-21.7" y="0" class="st0" width="94.9" height="43"/>
	<rect x="-21.2" y="0.5" class="st1" width="93.9" height="42"/>
</g>
<g id="Rectangle_77_1_" transform="translate(1101 636)">
	<rect x="-416.1" y="-309" class="st0" width="94.9" height="43"/>
	<rect x="-415.6" y="-308.5" class="st1" width="93.9" height="42"/>
</g>
<g id="Rectangle_82" transform="translate(552 507)">
	<rect x="-9.9" y="8" class="st0" width="94.9" height="43"/>
	<rect x="-9.4" y="8.5" class="st1" width="93.9" height="42"/>
</g>
<g id="Rectangle_87" transform="translate(1152 292)">
	<rect x="-20.8" class="st0" width="94.9" height="43"/>
	<rect x="-20.3" y="0.5" class="st1" width="93.9" height="42"/>
</g>
<g id="Rectangle_69" transform="translate(194 593)">
	<rect x="-2.2" y="-12" class="st0" width="94.9" height="43"/>
	<rect x="-1.7" y="-11.5" class="st1" width="93.9" height="42"/>
</g>
<g id="Rectangle_70" transform="translate(194 679)">
	<rect x="-2.2" y="-4" class="st0" width="94.9" height="43"/>
	<rect x="-1.7" y="-3.5" class="st1" width="93.9" height="42"/>
</g>
<g id="Rectangle_75" transform="translate(648 421)">
	<rect x="-11.9" class="st0" width="94.9" height="43"/>
	<rect x="-11.5" y="0.5" class="st1" width="93.9" height="42"/>
</g>
<g id="Rectangle_80" transform="translate(1101 335)">
	<rect x="-21.7" y="4" class="st0" width="94.9" height="43"/>
	<rect x="-21.2" y="4.5" class="st1" width="93.9" height="42"/>
</g>
<g id="Rectangle_85" transform="translate(1249 292)">
	<rect x="-18.9" class="st0" width="94.9" height="43"/>
	<rect x="-18.4" y="0.5" class="st1" width="93.9" height="42"/>
</g>
<g id="Rectangle_90" transform="translate(819 486)">
	<rect x="-21.6" y="-4" class="st0" width="94.9" height="43"/>
	<rect x="-21.1" y="-3.5" class="st1" width="93.9" height="42"/>
</g>
<g id="Rectangle_97" transform="translate(909 486)">
	<rect x="-13.6" y="-4" class="st0" width="94.9" height="43"/>
	<rect x="-13.1" y="-3.5" class="st1" width="93.9" height="42"/>
</g>
<g id="Rectangle_98" transform="translate(861 529)">
	<rect x="-16.5" class="st0" width="94.9" height="43"/>
	<rect x="-16" y="0.5" class="st1" width="93.9" height="42"/>
</g>
<g id="Rectangle_99" transform="translate(1006 443)">
	<rect x="-15.7" y="-8" class="st0" width="94.9" height="43"/>
	<rect x="-15.2" y="-7.5" class="st1" width="93.9" height="42"/>
</g>
<g id="Rectangle_68" transform="translate(0 593)">
	<rect x="2" y="-12" class="st0" width="94.9" height="43"/>
	<rect x="2.5" y="-11.5" class="st1" width="93.9" height="42"/>
</g>
<g id="Rectangle_74" transform="translate(0 679)">
	<rect x="2" y="-4" class="st0" width="94.9" height="43"/>
	<rect x="2.5" y="-3.5" class="st1" width="93.9" height="42"/>
</g>
<g id="Rectangle_79" transform="translate(454 421)">
	<rect x="-7.8" class="st0" width="94.9" height="43"/>
	<rect x="-7.3" y="0.5" class="st1" width="93.9" height="42"/>
</g>
<g id="Rectangle_84" transform="translate(1297 249)">
	<rect x="-25.9" y="-4" class="st0" width="94.9" height="43"/>
	<rect x="-25.4" y="-3.5" class="st1" width="93.9" height="42"/>
</g>
<g id="Rectangle_89" transform="translate(1055 292)">
	<rect x="-22.7" class="st0" width="94.9" height="43"/>
	<rect x="-22.2" y="0.5" class="st1" width="93.9" height="42"/>
</g>
<g id="Rectangle_67" transform="translate(357 335)">
	<rect x="-1.7" y="4" class="st0" width="94.9" height="43"/>
	<rect x="-1.2" y="4.5" class="st1" width="93.9" height="42"/>
</g>
<g id="Rectangle_95" transform="translate(212 292)">
	<rect x="-2.6" class="st0" width="94.9" height="43"/>
	<rect x="-2.1" y="0.5" class="st1" width="93.9" height="42"/>
</g>
<g id="Rectangle_96" transform="translate(455 550)">
	<rect x="-7.8" y="12" class="st0" width="94.9" height="43"/>
	<rect x="-7.3" y="12.5" class="st1" width="93.9" height="42"/>
</g>
<g id="Rectangle_73" transform="translate(145 636)">
	<rect x="-1.1" y="-8" class="st0" width="94.9" height="43"/>
	<rect x="-0.6" y="-7.5" class="st1" width="93.9" height="42"/>
</g>
<g id="Rectangle_78" transform="translate(599 378)">
	<rect x="-8.9" y="-4" class="st0" width="94.9" height="43"/>
	<rect x="-8.4" y="-3.5" class="st1" width="93.9" height="42"/>
</g>
<g id="Rectangle_83" transform="translate(600 464)">
	<rect x="-8.9" y="4" class="st0" width="94.9" height="43"/>
	<rect x="-8.4" y="4.5" class="st1" width="93.9" height="42"/>
</g>
<g id="Rectangle_88" transform="translate(1297 115)">
	<rect x="-25.9" class="st0" width="94.9" height="43"/>
	<rect x="-25.4" y="0.5" class="st1" width="93.9" height="42"/>
</g>
</svg>
