<?xml version="1.0" encoding="utf-8"?>
<!-- Generator: Adobe Illustrator 24.3.0, SVG Export Plug-In . SVG Version: 6.00 Build 0)  -->
<svg version="1.1" id="Layer_1" xmlns="http://www.w3.org/2000/svg" xmlns:xlink="http://www.w3.org/1999/xlink" x="0px" y="0px"
	 viewBox="0 0 612 792" style="enable-background:new 0 0 612 792;" xml:space="preserve">
<style type="text/css">
	.st0{fill:#FFFFFF;}
</style>
<path id="Icon_awesome-facebook" class="st0" d="M577,396.2C576.1,249.4,456.8,131.1,310.6,132c-146.2,0.9-264,120.7-263.1,267.5
	c0.8,130.2,95.3,240.6,223.4,260.9V473.5h-67.2v-77.3h67.2v-58.9c0-67,39.5-104.1,100-104.1c19.9,0.3,39.7,2.1,59.3,5.3v65.7h-33.4
	c-21-2.7-40.3,12.2-43,33.3c-0.4,2.8-0.4,5.6-0.2,8.5v50.2h73.5l-11.8,77.3h-61.7v186.9C482.6,639.4,577.3,527.4,577,396.2z"/>
</svg>
