<?xml version="1.0" encoding="utf-8"?>
<!-- Generator: Adobe Illustrator 24.3.0, SVG Export Plug-In . SVG Version: 6.00 Build 0)  -->
<svg version="1.1" id="Layer_1" xmlns="http://www.w3.org/2000/svg" xmlns:xlink="http://www.w3.org/1999/xlink" x="0px" y="0px"
	 viewBox="0 0 612 792" style="enable-background:new 0 0 612 792;" xml:space="preserve">
<style type="text/css">
	.st0{fill:#FFFFFF;}
</style>
<path id="Icon_awesome-instagram" class="st0" d="M306.4,312.4c-64.8,0-117.3,54.3-117.3,121.4s52.5,121.4,117.3,121.4
	c64.8,0,117.3-54.3,117.3-121.4c0,0,0,0,0,0c0.1-66.9-52.2-121.3-116.9-121.4C306.6,312.4,306.5,312.4,306.4,312.4z M306.4,512.7
	c-42.1,0-76.3-35.3-76.3-78.9c0-43.6,34.1-78.9,76.2-78.9s76.3,35.3,76.3,78.9c0,0,0,0,0,0C382.5,477.3,348.4,512.6,306.4,512.7z
	 M455.7,307.4c0,15.7-12.3,28.4-27.4,28.4s-27.4-12.7-27.4-28.4c0-15.7,12.3-28.4,27.4-28.4c15.1-0.1,27.4,12.5,27.4,28.1
	C455.7,307.2,455.7,307.3,455.7,307.4z M533.5,336.1c0.8-36.8-12.5-72.4-36.9-99.2c-25.9-25.2-60.3-38.9-95.8-38.3
	c-37.8-2.2-151-2.2-188.7,0c-35.6-0.8-70,12.9-95.9,38.2c-24.4,26.8-37.7,62.4-36.9,99.2c-2.2,39.1-2.2,156.2,0,195.3
	c-0.8,36.8,12.5,72.4,36.9,99.2c25.9,25.2,60.3,38.9,95.8,38.3c37.8,2.2,151,2.2,188.7,0c35.6,0.8,70-13,95.8-38.3
	c24.3-26.8,37.6-62.4,36.9-99.2C535.5,492.3,535.5,375.1,533.5,336.1L533.5,336.1z M484.6,573.3c-7.8,20.6-23.6,36.9-43.5,45
	c-30.1,12.4-101.5,9.5-134.8,9.5s-104.8,2.7-134.8-9.5c-19.9-8.1-35.6-24.4-43.5-45c-11.9-31.2-9.1-105.1-9.1-139.7
	S116.2,325.2,128,294c7.8-20.6,23.6-36.9,43.5-45c30.1-12.4,101.5-9.5,134.8-9.5s104.8-2.7,134.8,9.5c19.9,8.1,35.6,24.4,43.5,45
	c11.9,31.2,9.1,105.1,9.1,139.7S496.5,542.3,484.6,573.3z"/>
</svg>
